<svg xmlns="http://www.w3.org/2000/svg" viewBox="0 0 601 601" xmlns:v="https://vecta.io/nano"><style><![CDATA[.B{fill-opacity:.1}.C{fill-opacity:.2}.D{fill-opacity:.3}.E{fill-opacity:.4}.F{fill-opacity:.6}.G{fill-opacity:.5}.H{fill-opacity:.7}.I{fill-opacity:0}.J{fill-opacity:.8}.K{fill-opacity:.9}.L{stroke:#000}.M{stroke-linejoin:round}.N{stroke:#f9d455}.O{fill:#3776aa}.P{stroke-width:4}.Q{stroke-width:3}.R{stroke-width:2}.S{stroke-linecap:round}]]></style><defs><linearGradient id="A" x1="198.244" x2="245.594" y1="441.023" y2="482.107" gradientUnits="userSpaceOnUse"><stop offset="0" stop-color="#5a9fd4"/><stop offset="1" stop-color="#306998"/></linearGradient><clipPath id="B"><path stroke-width="7" d="M229 167.8s-89.2-3.3-55.5 101.2c64.3 118.4 371.7 41.4 376.9 324.6C528.8 767 428.2 782 331.9 799l-.6-152.1c55-10 136.5-101.7-154-190.3-229.7-94.7-168-264.8-151.6-317C125-45 490.1-57.7 528.4 131.2c0 0 9.3 36.5-16.8 60.3-26.3 24-156.8 76.8-282.5-23.6z" paint-order="stroke markers fill" class="L M O"/></clipPath><clipPath id="C"><path stroke-width="7.2" d="M174.5 108.7S-15.7 106 132 296c26 60-229.2-76.8-94.7-239.8C155-55.3 297.4 28 297.4 28Z" paint-order="stroke markers fill" class="L M O"/></clipPath><pattern href="#E" id="D" patternTransform="rotate(42)scale(.15)" preserveAspectRatio="xMidYMid"/><pattern id="E" width="83" height="84" fill="#f8cb68" patternTransform="rotate(45)scale(.5)" patternUnits="userSpaceOnUse" preserveAspectRatio="xMidYMid"><path d="M29.4 0a19 19 0 0 0 3.2 17 19 19 0 0 0 4-11.5q0-3.1-.9-5.5zm42 0a19 19 0 0 0 3.2 17 19 19 0 0 0 4-11.5q0-3.1-.9-5.5ZM11.6 1.5c-5.4 0-9.3 2.3-11.6 4a19 19 0 0 0 11.6 3.9 19 19 0 0 0 11.5-4 19 19 0 0 0-11.5-3.9m42 0c-5.4 0-9.3 2.3-11.6 4a19 19 0 0 0 11.6 3.9 19 19 0 0 0 11.5-4 19 19 0 0 0-11.5-3.9M11.6 15a19 19 0 0 0-4 11.6c0 5.4 2.3 9.2 4 11.5a19 19 0 0 0 4-11.5 19 19 0 0 0-4-11.6m42 0a19 19 0 0 0-4 11.6c0 5.4 2.3 9.2 4 11.5a19 19 0 0 0 4-11.5 19 19 0 0 0-4-11.6m-21 7.6c-5.4 0-9.3 2.3-11.6 4a19 19 0 0 0 11.6 3.9 19 19 0 0 0 11.5-4 19 19 0 0 0-11.5-3.9m41 0c-5.4 0-9.3 2.3-11.6 4a19 19 0 0 0 11.6 3.9c4 0 7.1-1.2 9.4-2.5V25a18 18 0 0 0-9.4-2.6M0 25.1v2.8l2.1-1.4zm32.6 10.8a19 19 0 0 0-4 11.6c0 5.4 2.3 9.3 4 11.5a19 19 0 0 0 4-11.5 19 19 0 0 0-4-11.6m42 0a19 19 0 0 0-4 11.6c0 5.4 2.3 9.3 4 11.5a19 19 0 0 0 4-11.5 19 19 0 0 0-4-11.6m-63 7.6c-5.4 0-9.3 2.3-11.6 4a19 19 0 0 0 11.6 4 19 19 0 0 0 11.5-4 19 19 0 0 0-11.5-4m42 0c-5.4 0-9.3 2.3-11.6 4a19 19 0 0 0 11.6 4 19 19 0 0 0 11.5-4 19 19 0 0 0-11.5-4M11.6 57a19 19 0 0 0-4 11.6c0 5.4 2.3 9.3 4 11.5a19 19 0 0 0 4-11.5 19 19 0 0 0-4-11.6m42 0a19 19 0 0 0-4 11.6c0 5.4 2.3 9.3 4 11.5a19 19 0 0 0 4-11.5 19 19 0 0 0-4-11.6m-21 7.6c-5.4 0-9.3 2.3-11.6 4a19 19 0 0 0 11.6 4 19 19 0 0 0 11.5-4 19 19 0 0 0-11.5-4m41 0c-5.4 0-9.3 2.3-11.6 4a19 19 0 0 0 11.6 4c4 0 7.1-1.3 9.4-2.6V67a18 18 0 0 0-9.4-2.6M0 67.1v2.8l2.1-1.4zm32.6 10.8a20 20 0 0 0-3.2 6.1h6.3a20 20 0 0 0-3.1-6.1m42 0a20 20 0 0 0-3.2 6.1h6.3a20 20 0 0 0-3.1-6.1"/></pattern><path id="F" d="M270 18h15v15h-15zm18 0h15v15h-15z"/><path id="G" d="M72 54h15v15H72z"/><path id="H" d="M90 54h15v15H90z"/><path id="I" d="M54 72h15v15H54z"/><path id="J" d="M36 90h15v15H36z"/><path id="K" d="M468 90h15v15h-15zm18 0h15v15h-15zm18 0h15v15h-15z"/><path id="L" d="M72 108h15v15H72zm18 0h15v15H90z"/><path id="M" d="M18 126h15v15H18z"/><path id="N" d="M450 126h15v15h-15zm18 0h15v15h-15zm18 0h15v15h-15zm18 0h15v15h-15z"/><path id="O" d="M0 180h15v15H0z"/><path id="P" d="M54 252h15v15H54zm18 0h15v15H72z"/></defs><circle cx="301.3" cy="301.3" r="293.8" stroke="#ffd43b" stroke-width="11.8" paint-order="fill markers stroke"/><path d="M80.4 491.4h63.2v56H80.4z"/><path d="M314.7 199.5s-50.7-1.9-31.5 57.5c36.5 67.3 211.1 23.5 214 184.4-12.3 98.4-69.4 107-124.1 116.6l-.3-86.4c31.2-5.7 77.5-57.8-87.4-108.2-130.6-53.7-95.6-150.3-86.2-180 56.4-104.8 263.8-112 285.5-4.7 0 0 5.3 20.7-9.5 34.2-15 13.6-89 43.6-160.5-13.4z" paint-order="stroke markers fill" class="L M O P"/><g fill="#ffd43b" clip-path="url(#B)" transform="matrix(.568 0 0 .568 184.6 104.2)"><use href="#F" class="I"/><path d="M108 36h15v15h-15z" class="E"/><path d="M126 36h15v15h-15z" class="J"/><path d="M180 36h15v15h-15z" class="B"/><path d="M468 36h15v15h-15z"/><use href="#G" class="B"/><use href="#H" class="H"/><path d="M108 54h15v15h-15z" class="F"/><path d="M126 54h15v15h-15z" class="B"/><path d="M144 54h15v15h-15z" class="E"/><path d="M162 54h15v15h-15z" class="C"/><path d="M180 54h15v15h-15z" class="F"/><path d="M198 54h15v15h-15z" class="D"/><path d="M216 54h15v15h-15zm18 0h15v15h-15z" class="B"/><path d="M378 54h15v15h-15z" class="C"/><path d="M396 54h15v15h-15z" class="I"/><path d="M414 54h15v15h-15z" class="F"/><path d="M432 54h15v15h-15z" class="J"/><path d="M450 54h15v15h-15z" class="K"/><path d="M468 54h15v15h-15z"/><path d="M486 54h15v15h-15z" class="J"/><use href="#I" class="B"/><path d="M72 72h15v15H72z" class="J"/><path d="M90 72h15v15H90z" class="K"/><path d="M108 72h15v15h-15z" class="C"/><path d="M126 72h15v15h-15z" class="D"/><path d="M162 72h15v15h-15z" class="G"/><path d="M198 72h15v15h-15z" class="C"/><path d="M216 72h15v15h-15z" class="E"/><path d="M234 72h15v15h-15z" class="B"/><path d="M378 72h15v15h-15z" class="C"/><path d="M396 72h15v15h-15z" class="I"/><path d="M414 72h15v15h-15z" class="B"/><path d="M432 72h15v15h-15z" class="E"/><path d="M450 72h15v15h-15z" class="F"/><path d="M468 72h15v15h-15zm18 0h15v15h-15z"/><path d="M504 72h15v15h-15z" class="D"/><use href="#J" class="B"/><path d="M54 90h15v15H54z" class="J"/><path d="M72 90h15v15H72z" class="H"/><path d="M90 90h15v15H90zm18 0h15v15h-15z" class="F"/><path d="M144 90h15v15h-15z" class="B"/><path d="M162 90h15v15h-15z" class="D"/><path d="M414 90h15v15h-15z" class="I"/><path d="M432 90h15v15h-15z" class="B"/><path d="M450 90h15v15h-15z" class="E"/><use href="#K"/><path d="M36 108h15v15H36z" class="G"/><path d="M54 108h15v15H54z" class="H"/><use href="#L" class="C"/><path d="M234 108h15v15h-15z" class="G"/><path d="M324 108h15v15h-15z" class="I"/><path d="M414 108h15v15h-15z" class="B"/><path d="M432 108h15v15h-15zm18 0h15v15h-15z" class="H"/><path d="M468 108h15v15h-15zm18 0h15v15h-15zm18 0h15v15h-15z"/><path d="M522 108h15v15h-15z" class="F"/><use href="#M" class="C"/><path d="M36 126h15v15H36z" class="J"/><path d="M54 126h15v15H54z" class="F"/><path d="M72 126h15v15H72z" class="E"/><path d="M198 126h15v15h-15z" class="I"/><path d="M216 126h15v15h-15z" class="B"/><path d="M270 126h15v15h-15z" class="E"/><path d="M288 126h15v15h-15z" class="C"/><path d="M306 126h15v15h-15z" class="I"/><path d="M324 126h15v15h-15z" class="E"/><path d="M414 126h15v15h-15z" class="H"/><path d="M432 126h15v15h-15z" class="F"/><use href="#N"/><path d="M522 126h15v15h-15z" class="H"/><path d="M18 144h15v15H18z" class="F"/><path d="M36 144h15v15H36z" class="K"/><path d="M54 144h15v15H54z" class="F"/><path d="M72 144h15v15H72z" class="B"/><path d="M162 144h15v15h-15z" class="I"/><path d="M198 144h15v15h-15z" class="B"/><path d="M216 144h15v15h-15z" class="F"/><path d="M234 144h15v15h-15z" class="C"/><path d="M252 144h15v15h-15zm18 0h15v15h-15z" class="D"/><path d="M288 144h15v15h-15zm18 0h15v15h-15z" class="E"/><path d="M324 144h15v15h-15zm18 0h15v15h-15z" class="C"/><path d="M360 144h15v15h-15z" class="D"/><path d="M396 144h15v15h-15zm18 0h15v15h-15z" class="C"/><path d="M432 144h15v15h-15z" class="B"/><path d="M450 144h15v15h-15zm18 0h15v15h-15zm18 0h15v15h-15zm18 0h15v15h-15zm18 0h15v15h-15z"/><path d="M18 162h15v15H18z" class="G"/><path d="M36 162h15v15H36z" class="E"/><path d="M54 162h15v15H54z" class="G"/><path d="M72 162h15v15H72z" class="C"/><path d="M162 162h15v15h-15z" class="B"/><path d="M180 162h15v15h-15z" class="G"/><path d="M198 162h15v15h-15z" class="D"/><path d="M216 162h15v15h-15z" class="B"/><path d="M234 162h15v15h-15z" class="E"/><path d="M252 162h15v15h-15z" class="F"/><path d="M270 162h15v15h-15zm36 0h15v15h-15z" class="C"/><path d="M324 162h15v15h-15zm18 0h15v15h-15z" class="E"/><path d="M360 162h15v15h-15z" class="C"/><path d="M378 162h15v15h-15z" class="D"/><path d="M396 162h15v15h-15z" class="H"/><path d="M414 162h15v15h-15z" class="E"/><path d="M432 162h15v15h-15z" class="K"/><path d="M450 162h15v15h-15zm18 0h15v15h-15zm18 0h15v15h-15zm18 0h15v15h-15z"/><path d="M522 162h15v15h-15z" class="K"/><use href="#O" class="C"/><path d="M18 180h15v15H18z" class="F"/><path d="M36 180h15v15H36z" class="E"/><path d="M72 180h15v15H72z" class="B"/><path d="M126 180h15v15h-15zm18 0h15v15h-15zm36 0h15v15h-15zm54 0h15v15h-15z" class="I"/><path d="M252 180h15v15h-15z" class="G"/><path d="M270 180h15v15h-15z" class="H"/><path d="M288 180h15v15h-15z" class="C"/><path d="M306 180h15v15h-15z" class="D"/><path d="M324 180h15v15h-15z" class="J"/><path d="M342 180h15v15h-15z" class="E"/><path d="M360 180h15v15h-15z" class="G"/><path d="M378 180h15v15h-15z" class="H"/><path d="M396 180h15v15h-15z" class="K"/><path d="M414 180h15v15h-15zm18 0h15v15h-15zm18 0h15v15h-15zm18 0h15v15h-15zm18 0h15v15h-15zm18 0h15v15h-15z"/><path d="M522 180h15v15h-15zM0 198h15v15H0z" class="E"/><path d="M18 198h15v15H18z" class="H"/><path d="M36 198h15v15H36z" class="G"/><path d="M54 198h15v15H54z" class="B"/><path d="M72 198h15v15H72zm54 0h15v15h-15z" class="C"/><path d="M144 198h15v15h-15z" class="D"/><path d="M162 198h15v15h-15z" class="B"/><path d="M270 198h15v15h-15z" class="C"/><path d="M288 198h15v15h-15z" class="F"/><path d="M306 198h15v15h-15z" class="H"/><path d="M324 198h15v15h-15z" class="J"/><path d="M342 198h15v15h-15z" class="K"/><path d="M360 198h15v15h-15zm18 0h15v15h-15zm18 0h15v15h-15zm18 0h15v15h-15zm18 0h15v15h-15zm18 0h15v15h-15zm18 0h15v15h-15zm18 0h15v15h-15z"/><path d="M0 216h15v15H0z" class="E"/><path d="M18 216h15v15H18z" class="J"/><path d="M108 216h15v15h-15zm36 0h15v15h-15zm18 0h15v15h-15zm162 0h15v15h-15z" class="B"/><path d="M342 216h15v15h-15z" class="E"/><path d="M360 216h15v15h-15z" class="G"/><path d="M378 216h15v15h-15z" class="F"/><path d="M396 216h15v15h-15z" class="H"/><path d="M414 216h15v15h-15zm18 0h15v15h-15zm18 0h15v15h-15z"/><path d="M0 234h15v15H0z" class="C"/><path d="M18 234h15v15H18z" class="E"/><path d="M36 234h15v15H36z" class="I"/><path d="M54 234h15v15H54z" class="G"/><path d="M72 234h15v15H72z" class="C"/><path d="M108 234h15v15h-15zm18 0h15v15h-15z" class="B"/><path d="M144 234h15v15h-15z" class="G"/><path d="M162 234h15v15h-15z" class="B"/><path d="M0 252h15v15H0z" class="D"/><path d="M18 252h15v15H18z" class="K"/><path d="M36 252h15v15H36z" class="I"/><use href="#P" class="D"/><path d="M90 252h15v15H90z" class="B"/><path d="M144 252h15v15h-15z" class="E"/><path d="M162 252h15v15h-15z" class="B"/><path d="M0 270h15v15H0z" class="C"/><path d="M18 270h15v15H18z" class="J"/><path d="M36 270h15v15H36z" class="B"/><path d="M54 270h15v15H54z" class="G"/><path d="M72 270h15v15H72z" class="D"/><path d="M144 270h15v15h-15z" class="B"/><path d="M162 270h15v15h-15z" class="C"/><path d="M18 288h15v15H18zm18 0h15v15H36z" class="K"/><path d="M54 288h15v15H54z" class="D"/><path d="M72 288h15v15H72z" class="C"/><path d="M90 288h15v15H90z" class="D"/><path d="M144 288h15v15h-15z" class="I"/><path d="M162 288h15v15h-15z" class="C"/><path d="M180 288h15v15h-15z" class="B"/><path d="M18 306h15v15H18z" class="F"/><path d="M36 306h15v15H36z" class="J"/><path d="M54 306h15v15H54z" class="D"/><path d="M72 306h15v15H72z" class="B"/><path d="M108 306h15v15h-15zm18 0h15v15h-15zm18 0h15v15h-15z" class="C"/><path d="M162 306h15v15h-15z" class="B"/><path d="M180 306h15v15h-15z" class="H"/><path d="M198 306h15v15h-15z" class="E"/><path d="M216 306h15v15h-15zM18 324h15v15H18z" class="B"/><path d="M36 324h15v15H36z" class="C"/><path d="M54 324h15v15H54z" class="I"/><path d="M72 324h15v15H72z" class="C"/><path d="M108 324h15v15h-15z" class="I"/><path d="M180 324h15v15h-15z" class="B"/><path d="M198 324h15v15h-15z" class="E"/><path d="M216 324h15v15h-15z" class="B"/><path d="M234 324h15v15h-15z" class="H"/><path d="M252 324h15v15h-15z" class="E"/><path d="M270 324h15v15h-15z" class="B"/><path d="M36 342h15v15H36z" class="F"/><path d="M54 342h15v15H54z" class="G"/><path d="M72 342h15v15H72z" class="K"/><path d="M90 342h15v15H90z" class="E"/><path d="M108 342h15v15h-15z" class="G"/><path d="M144 342h15v15h-15z" class="C"/><path d="M162 342h15v15h-15z" class="I"/><path d="M216 342h15v15h-15z" class="E"/><path d="M234 342h15v15h-15z" class="D"/><path d="M252 342h15v15h-15z" class="C"/><path d="M270 342h15v15h-15z" class="J"/><path d="M288 342h15v15h-15z" class="F"/><path d="M306 342h15v15h-15z" class="D"/><path d="M324 342h15v15h-15z" class="C"/><path d="M36 360h15v15H36z" class="B"/><path d="M54 360h15v15H54z" class="J"/><path d="M72 360h15v15H72z" class="F"/><path d="M90 360h15v15H90z" class="C"/><path d="M108 360h15v15h-15z" class="B"/><path d="M144 360h15v15h-15z" class="I"/><path d="M180 360h15v15h-15z" class="B"/><path d="M234 360h15v15h-15z" class="E"/><path d="M270 360h15v15h-15z" class="B"/><path d="M288 360h15v15h-15z" class="E"/><path d="M306 360h15v15h-15z" class="F"/><path d="M324 360h15v15h-15z" class="H"/><path d="M342 360h15v15h-15z" class="F"/><path d="M360 360h15v15h-15z" class="B"/><path d="M378 360h15v15h-15z" class="C"/><path d="M54 378h15v15H54z" class="I"/><path d="M72 378h15v15H72z" class="F"/><path d="M90 378h15v15H90z" class="K"/><path d="M108 378h15v15h-15z" class="B"/><path d="M126 378h15v15h-15z" class="D"/><path d="M144 378h15v15h-15zm18 0h15v15h-15z" class="C"/><path d="M180 378h15v15h-15z" class="G"/><path d="M198 378h15v15h-15z" class="C"/><path d="M270 378h15v15h-15z" class="B"/><path d="M288 378h15v15h-15z" class="E"/><path d="M306 378h15v15h-15z" class="B"/><path d="M324 378h15v15h-15z" class="C"/><path d="M342 378h15v15h-15z" class="E"/><path d="M360 378h15v15h-15z" class="H"/><path d="M378 378h15v15h-15zm18 0h15v15h-15z" class="E"/><path d="M414 378h15v15h-15zM72 396h15v15H72z" class="B"/><path d="M90 396h15v15H90z" class="E"/><path d="M108 396h15v15h-15z" class="C"/><path d="M126 396h15v15h-15z" class="J"/><path d="M144 396h15v15h-15z" class="B"/><path d="M162 396h15v15h-15z" class="E"/><path d="M180 396h15v15h-15z" class="D"/><path d="M216 396h15v15h-15z" class="C"/><path d="M324 396h15v15h-15z" class="I"/><path d="M342 396h15v15h-15z" class="D"/><path d="M360 396h15v15h-15z" class="H"/><path d="M378 396h15v15h-15z" class="B"/><path d="M396 396h15v15h-15z" class="F"/><path d="M414 396h15v15h-15z" class="H"/><path d="M432 396h15v15h-15z" class="D"/><path d="M450 396h15v15h-15z" class="B"/><path d="M108 414h15v15h-15z" class="G"/><path d="M126 414h15v15h-15z" class="H"/><path d="M144 414h15v15h-15z" class="G"/><path d="M162 414h15v15h-15z" class="F"/><path d="M180 414h15v15h-15z" class="E"/><path d="M198 414h15v15h-15z" class="C"/><path d="M216 414h15v15h-15z" class="B"/><path d="M306 414h15v15h-15z" class="D"/><path d="M378 414h15v15h-15z" class="C"/><path d="M396 414h15v15h-15z" class="D"/><path d="M414 414h15v15h-15zm18 0h15v15h-15z" class="I"/><path d="M450 414h15v15h-15z" class="E"/><path d="M468 414h15v15h-15z" class="C"/><path d="M126 432h15v15h-15z" class="B"/><path d="M144 432h15v15h-15z" class="E"/><path d="M162 432h15v15h-15z" class="K"/><path d="M180 432h15v15h-15z" class="H"/><path d="M198 432h15v15h-15z" class="G"/><path d="M216 432h15v15h-15z" class="D"/><path d="M234 432h15v15h-15z" class="E"/><path d="M306 432h15v15h-15z" class="I"/><path d="M378 432h15v15h-15z" class="C"/><path d="M396 432h15v15h-15z" class="B"/><path d="M414 432h15v15h-15z" class="I"/><path d="M432 432h15v15h-15z" class="D"/><path d="M450 432h15v15h-15z" class="K"/><path d="M468 432h15v15h-15z" class="F"/><path d="M486 432h15v15h-15z" class="D"/><path d="M162 450h15v15h-15z" class="B"/><path d="M180 450h15v15h-15zm18 0h15v15h-15z" class="E"/><path d="M216 450h15v15h-15z" class="G"/><path d="M234 450h15v15h-15z" class="C"/><path d="M252 450h15v15h-15z" class="B"/><path d="M270 450h15v15h-15z" class="C"/><path d="M288 450h15v15h-15z" class="I"/><path d="M306 450h15v15h-15z" class="D"/><path d="M414 450h15v15h-15z" class="C"/><path d="M432 450h15v15h-15z" class="B"/><path d="M450 450h15v15h-15zm18 0h15v15h-15z" class="G"/><path d="M486 450h15v15h-15z" class="K"/><path d="M504 450h15v15h-15z" class="C"/><path d="M216 468h15v15h-15z" class="B"/><path d="M234 468h15v15h-15z" class="D"/><path d="M252 468h15v15h-15z" class="F"/><path d="M270 468h15v15h-15zm18 0h15v15h-15z" class="J"/><path d="M306 468h15v15h-15z" class="G"/><path d="M324 468h15v15h-15z" class="I"/><path d="M360 468h15v15h-15zm90 0h15v15h-15z" class="B"/><path d="M468 468h15v15h-15zm18 0h15v15h-15z" class="H"/><path d="M504 468h15v15h-15z" class="J"/><path d="M522 468h15v15h-15z" class="I"/><path d="M270 486h15v15h-15z" class="B"/><path d="M288 486h15v15h-15zm18 0h15v15h-15z" class="D"/><path d="M324 486h15v15h-15z" class="G"/><path d="M342 486h15v15h-15zm18 0h15v15h-15z" class="B"/><path d="M378 486h15v15h-15zm72 0h15v15h-15z" class="I"/><path d="M468 486h15v15h-15z" class="G"/><path d="M486 486h15v15h-15z" class="D"/><path d="M504 486h15v15h-15z" class="H"/><path d="M522 486h15v15h-15z" class="D"/><path d="M324 504h15v15h-15z" class="B"/><path d="M342 504h15v15h-15z" class="F"/><path d="M360 504h15v15h-15z" class="E"/><path d="M378 504h15v15h-15z" class="F"/><path d="M396 504h15v15h-15z" class="I"/><path d="M468 504h15v15h-15zm36 0h15v15h-15z" class="B"/><path d="M522 504h15v15h-15z" class="H"/><path d="M342 522h15v15h-15zm18 0h15v15h-15z" class="I"/><path d="M378 522h15v15h-15z" class="H"/><path d="M396 522h15v15h-15z" class="B"/><path d="M450 522h15v15h-15z" class="C"/><path d="M468 522h15v15h-15z" class="I"/><path d="M486 522h15v15h-15z" class="D"/><path d="M504 522h15v15h-15z" class="I"/><path d="M522 522h15v15h-15z" class="B"/><path d="M540 522h15v15h-15z" class="D"/><path d="M360 540h15v15h-15z" class="B"/><path d="M378 540h15v15h-15z" class="F"/><path d="M396 540h15v15h-15z" class="B"/><path d="M522 540h15v15h-15z" class="C"/><path d="M540 540h15v15h-15z" class="D"/><path d="M378 558h15v15h-15z" class="B"/><path d="M396 558h15v15h-15z" class="E"/><path d="M522 558h15v15h-15z" class="D"/><path d="M540 558h15v15h-15z" class="E"/><path d="M378 576h15v15h-15z" class="B"/><path d="M396 576h15v15h-15z" class="F"/><path d="M414 576h15v15h-15z" class="I"/><path d="M522 576h15v15h-15z" class="E"/><path d="M540 576h15v15h-15z" class="G"/><path d="M378 594h15v15h-15z" class="E"/><path d="M396 594h15v15h-15z" class="B"/><path d="M504 594h15v15h-15z" class="I"/><path d="M522 594h15v15h-15z" class="B"/><path d="M540 594h15v15h-15z" class="C"/><path d="M378 612h15v15h-15z" class="E"/><path d="M396 612h15v15h-15zm126 0h15v15h-15z" class="B"/><path d="M540 612h15v15h-15z" class="G"/><path d="M342 630h15v15h-15zm18 0h15v15h-15zm18 0h15v15h-15z" class="B"/><path d="M486 630h15v15h-15z" class="E"/><path d="M504 630h15v15h-15z" class="B"/><path d="M522 630h15v15h-15z" class="J"/><path d="M540 630h15v15h-15z" class="D"/><path d="M324 648h15v15h-15z" class="F"/><path d="M342 648h15v15h-15z" class="J"/><path d="M360 648h15v15h-15z" class="E"/><path d="M468 648h15v15h-15z" class="I"/><path d="M486 648h15v15h-15zm18 0h15v15h-15zm18 0h15v15h-15z" class="B"/><path d="M324 666h15v15h-15zm18 0h15v15h-15zm126 0h15v15h-15z" class="G"/><path d="M486 666h15v15h-15zm18 0h15v15h-15z" class="J"/><path d="M522 666h15v15h-15z" class="D"/><path d="M414 684h15v15h-15z" class="B"/><path d="M432 684h15v15h-15z" class="C"/><path d="M450 684h15v15h-15z" class="D"/><path d="M468 684h15v15h-15z" class="J"/><path d="M486 684h15v15h-15z" class="G"/><path d="M504 684h15v15h-15z" class="J"/><path d="M522 684h15v15h-15zM414 702h15v15h-15z" class="I"/><path d="M432 702h15v15h-15z" class="C"/><path d="M450 702h15v15h-15z" class="D"/><path d="M468 702h15v15h-15z" class="F"/><path d="M486 702h15v15h-15z" class="H"/><path d="M504 702h15v15h-15z" class="D"/><path d="M378 720h15v15h-15z" class="B"/><path d="M396 720h15v15h-15z" class="E"/><path d="M414 720h15v15h-15z" class="B"/><path d="M432 720h15v15h-15z" class="G"/><path d="M450 720h15v15h-15z" class="K"/><path d="M468 720h15v15h-15z" class="F"/><path d="M486 720h15v15h-15z" class="D"/><path d="M324 738h15v15h-15z" class="C"/><path d="M342 738h15v15h-15z" class="D"/><path d="M378 738h15v15h-15z" class="B"/><path d="M396 738h15v15h-15z" class="G"/><path d="M414 738h15v15h-15z" class="B"/><path d="M432 738h15v15h-15z" class="G"/><path d="M450 738h15v15h-15z" class="J"/><path d="M468 738h15v15h-15z" class="D"/><path d="M342 756h15v15h-15z" class="C"/><path d="M360 756h15v15h-15z" class="D"/><path d="M378 756h15v15h-15z" class="H"/><path d="M396 756h15v15h-15z" class="J"/><path d="M414 756h15v15h-15z" class="E"/><path d="M432 756h15v15h-15z" class="B"/><path d="M450 756h15v15h-15zM324 774h15v15h-15z" class="I"/><path d="M342 774h15v15h-15z" class="E"/><path d="M360 774h15v15h-15z" class="B"/><path d="M378 774h15v15h-15z" class="F"/><path d="M396 774h15v15h-15z" class="G"/><path d="M414 774h15v15h-15z" class="B"/><path d="M324 792h15v15h-15z" class="C"/></g><path stroke-width="2.7" d="M358.4 389.2h13.5v22h-13.5z" class="L"/><g stroke-width="1.1"><path fill="#dda24b" stroke="#916a30" d="M112.6 388.3h258v170.2h-258z" class="M"/><g stroke="#80501a"><path fill="#975f1d" d="M131.5 408.5h218.9V539H131.5z"/><path fill="#6a4119" d="m350.3 408.6-219.6-.7v131h6V517h213.6v-5H136.7v-22.6h213.6v-5H136.7l-.1-22.1h213.7V457H136.5l.1-22.5h213.7v-5.3H136.5v-16l213.9.3z"/></g><path fill="#f8d21c" stroke="#e0b621" d="m112.8 435.9-.3-46.3H160c-.1 4-.7 18.6-14.9 18.7h-13.5v14.4c-.1 10.6-11 13.4-18.7 13.2zm257.6-.1.2-46.3h-47.3c0 4 .6 18.6 14.8 18.7h13.6v14.4c0 10.6 11 13.4 18.7 13.2zm0 76.3.3 46.3h-47.4c.1-4 .7-18.6 14.9-18.8h13.5v-14.3c0-10.6 11-13.4 18.7-13.2zm-257.6 0-.2 46.3h47.3c-.1-4-.6-18.6-14.8-18.7h-13.6v-14.4c0-10.6-11-13.4-18.7-13.2z"/></g><path fill="#fbf67e" d="M121.7 394.2a4 4.2 0 0 0-4 4.2 4 4.2 0 0 0 4 4.2 4 4.2 0 0 0 4-4.2 4 4.2 0 0 0-4-4.2m22.4.1a4 4.2 0 0 0-4 4.2 4 4.2 0 0 0 4 4.3 4 4.2 0 0 0 4-4.3 4 4.2 0 0 0-4-4.2m-22.7 23.8a4 4.2 0 0 0-4 4.2 4 4.2 0 0 0 4 4.3 4 4.2 0 0 0 4-4.3 4 4.2 0 0 0-4-4.2m239.4-24a4 4.2 0 0 1 4 4.2 4 4.2 0 0 1-4 4.2 4 4.2 0 0 1-4-4.2 4 4.2 0 0 1 4-4.2m-22.5 0a4 4.2 0 0 1 4 4.3 4 4.2 0 0 1-4 4.2 4 4.2 0 0 1-4-4.2 4 4.2 0 0 1 4-4.2M361 418a4 4.2 0 0 1 4 4.2 4 4.2 0 0 1-4 4.2 4 4.2 0 0 1-4-4.2 4 4.2 0 0 1 4-4.2m0 136.8a4 4.2 0 0 0 4-4.2 4 4.2 0 0 0-4-4.2 4 4.2 0 0 0-4 4.2 4 4.2 0 0 0 4 4.2m-22.4-.1a4 4.2 0 0 0 4-4.2 4 4.2 0 0 0-4-4.3 4 4.2 0 0 0-4 4.3 4 4.2 0 0 0 4 4.2m22.7-23.8a4 4.2 0 0 0 4-4.2 4 4.2 0 0 0-4-4.3 4 4.2 0 0 0-4 4.3 4 4.2 0 0 0 4 4.2M122 554.2a4 4.2 0 0 1-4-4.3 4 4.2 0 0 1 4-4.2 4 4.2 0 0 1 4 4.2 4 4.2 0 0 1-4 4.2m22.4 0a4 4.2 0 0 1-4-4.3 4 4.2 0 0 1 4-4.2 4 4.2 0 0 1 4 4.2 4 4.2 0 0 1-4 4.2m-22.7-23.8a4 4.2 0 0 1-4-4.2 4 4.2 0 0 1 4-4.2 4 4.2 0 0 1 4 4.2 4 4.2 0 0 1-4 4.2"/><path stroke-width="4.9" d="M340 319.4v4.5l.1.2H143.2v-4.7h-16.6a30 30 0 0 0-4.6 4.7h-4.5v7.7c-6.8 15.6-4.7 37-5 54.3h143.8v0h114.5c-.3-22.7 3.4-52.4-14.1-66.8z" class="L"/><path fill="#ba7d2a" d="M130.6 324.3h229.2v57.2H130.6z"/><path fill="#6a4119" stroke="#80501a" d="M129.2 343.5h219.2v3.6H129.2z"/><path fill="#efb967" stroke="#dea34c" d="M340.2 319.2v4.7c6.5 15.2 4.6 30.7 5 46.3h-118 0-88.9c.5-15.6-1.4-31 5.1-46.2v-4.8h-16.6c-17.5 14.9-13.8 45.8-14 69.4h143.6 0H371c-.3-23.6 3.4-54.5-14.1-69.4z"/><path fill="#dda24b" d="M221 398.8h39.8V459H221z"/><rect width="13.5" height="76.1" x="234.5" y="375.6" fill="#2d2b2d" ry="8.1"/><g stroke-width="1.1"><path fill="#d1c9db" d="M231.4 446v-18.5c0-10.6 20-9.7 20 .3v19.5l-5.2-.1-.3-16.6c-.1-6.6-9.4-6.2-9.4 0l.1 15.8z" class="L"/><rect width="5.8" height="24.5" x="238.2" y="409.1" fill="#616068" stroke="#49484e" ry="2.6"/></g><path d="M240.8 441.1q-5.4 0-10 .9c-8.7 1.5-10.3 4.8-10.3 10.8v7.8h20.7v2.7h-28.4a13 13 0 0 0-13 10.5c-1.9 7.8-2 12.8 0 21 1.5 6.1 5 10.5 11 10.5h7.1v-9.5c0-6.8 6-12.8 13-12.8h20.6c5.8 0 10.4-4.8 10.4-10.5v-19.8c0-5.6-4.8-9.8-10.4-10.7a65 65 0 0 0-10.7-.9zm-11.2 6.4a4 4 0 0 1 3.8 4 4 4 0 0 1-3.8 3.9 4 4 0 1 1 0-8zm34.9 15.8v9.2c0 7-6 13-13 13H231c-5.7 0-10.4 5-10.4 10.6v19.7c0 4.2 2.8 7.1 6.4 9a21 21 0 0 0 4 1.5 38 38 0 0 0 7.3 1.5 32 32 0 0 0 7.7-.2 38 38 0 0 0 7.6-2l1.8-.7 1.8-1c2.8-1.8 4.8-4.4 4.8-8v-8h-20.7v-2.6h31c3.8 0 6-1.7 7.7-4.4l1-1.8a40 40 0 0 0 2.8-9.2 30 30 0 0 0 .4-5v-2.5a53 53 0 0 0-2.2-10.8l-.8-2c-1.7-3.8-4.4-6.3-8.9-6.3z" class="L Q"/><path d="M244.3 509.4h13.4v12h-13.4zm-21-63.5h12.2v10.4h-12.2z" fill="#fff"/><path fill="url(#A)" d="M240.7 441q-5.4 0-10 .8c-8.7 1.6-10.3 4.8-10.3 10.8v7.9h20.7v2.6h-28.4a13 13 0 0 0-13 10.5c-1.9 7.9-2 12.8 0 21 1.5 6.2 5 10.5 11 10.5h7.1v-9.4c0-6.9 6-12.9 13-12.9h20.6c5.8 0 10.4-4.7 10.4-10.5v-19.7c0-5.6-4.8-9.8-10.4-10.8a63 63 0 0 0-10.8-.8m-11.1 6.3a4 4 0 0 1 3.8 4 4 4 0 0 1-3.8 4 4 4 0 1 1 0-8"/><path fill="#f8d21c" d="M264.4 463.1v9.2c0 7.1-6 13.1-13 13.1h-20.6c-5.7 0-10.4 4.9-10.4 10.5v19.7c0 5.7 4.9 9 10.4 10.6a35 35 0 0 0 20.6 0c5.2-1.5 10.4-4.6 10.4-10.6v-7.9H241v-2.6h31c6 0 8.3-4.2 10.3-10.5 2.2-6.5 2.1-12.7 0-21-1.4-6-4.3-10.5-10.3-10.5zm-11.7 50a4 4 0 0 1 4 3.8 4 4 0 0 1-4 4 4 4 0 0 1-3.9-4 4 4 0 0 1 4-3.9"/><path d="M241.4 465.6a8 7.8 0 0 0-8 7.8 8 7.8 0 0 0 5.8 7.6l-4.9 16.2h13.3l-3.3-16.5a8 7.8 0 0 0 5-7.3 8 7.8 0 0 0-7.9-7.8"/><path d="M110 467.6s-60.2 87 76.1 75.8c36.7 6-107.5 82.9-143.6-28.2-16.8-87.9 67-128.7 67-128.7z" paint-order="stroke markers fill" class="L M O P"/><g fill="#ffd43b" clip-path="url(#C)" transform="matrix(.31 -.462 .477 .3 4.1 515.5)"><path d="M90 0h15v15H90z" class="D"/><path d="M108 0h15v15h-15zm18 0h15v15h-15z" class="F"/><path d="M144 0h15v15h-15z" class="H"/><path d="M162 0h15v15h-15z" class="J"/><path d="M180 0h15v15h-15zm18 0h15v15h-15z" class="K"/><path d="M216 0h15v15h-15z" class="F"/><path d="M234 0h15v15h-15z" class="G"/><path d="M252 0h15v15h-15zM54 18h15v15H54z" class="C"/><path d="M72 18h15v15H72z" class="H"/><path d="M90 18h15v15H90z" class="K"/><path d="M108 18h15v15h-15z"/><path d="M126 18h15v15h-15z" class="H"/><path d="M144 18h15v15h-15z" class="I"/><path d="M162 18h15v15h-15zm18 0h15v15h-15z" class="J"/><path d="M198 18h15v15h-15z" class="F"/><path d="M216 18h15v15h-15z" class="D"/><path d="M234 18h15v15h-15z" class="E"/><path d="M252 18h15v15h-15z" class="D"/><path d="M270 18h15v15h-15z" class="J"/><path d="M288 18h15v15h-15z" class="C"/><path d="M306 18h15v15h-15z" class="B"/><path d="M36 36h15v15H36z" class="D"/><path d="M54 36h15v15H54z" class="H"/><path d="M72 36h15v15H72zm18 0h15v15H90z" class="F"/><path d="M108 36h15v15h-15z" class="J"/><path d="M126 36h15v15h-15z" class="F"/><path d="M162 36h15v15h-15z" class="C"/><path d="M180 36h15v15h-15z" class="I"/><path d="M198 36h15v15h-15z" class="E"/><path d="M216 36h15v15h-15zm18 0h15v15h-15z" class="G"/><path d="M252 36h15v15h-15z" class="H"/><path d="M270 36h15v15h-15z" class="K"/><path d="M288 36h15v15h-15z" class="H"/><path d="M18 54h15v15H18z" class="C"/><path d="M36 54h15v15H36z" class="H"/><path d="M54 54h15v15H54z" class="F"/><path d="M72 54h15v15H72zm18 0h15v15H90z" class="E"/><path d="M108 54h15v15h-15z" class="J"/><path d="M126 54h15v15h-15z" class="D"/><path d="M144 54h15v15h-15z" class="B"/><path d="M162 54h15v15h-15z" class="F"/><path d="M180 54h15v15h-15zm18 0h15v15h-15z" class="B"/><path d="M216 54h15v15h-15zm18 0h15v15h-15zm18 0h15v15h-15z" class="E"/><path d="M0 72h15v15H0z" class="I"/><path d="M18 72h15v15H18z" class="D"/><path d="M36 72h15v15H36zm18 0h15v15H54z" class="C"/><path d="M72 72h15v15H72z" class="F"/><path d="M90 72h15v15H90z" class="C"/><path d="M108 72h15v15h-15z" class="B"/><path d="M126 72h15v15h-15z" class="G"/><path d="M144 72h15v15h-15z" class="C"/><path d="M162 72h15v15h-15z" class="F"/><path d="M180 72h15v15h-15z" class="D"/><path d="M198 72h15v15h-15z" class="G"/><path d="M216 72h15v15h-15z" class="C"/><path d="M234 72h15v15h-15zM0 90h15v15H0z" class="D"/><path d="M18 90h15v15H18z" class="H"/><use href="#J" class="J"/><path d="M54 90h15v15H54z" class="G"/><path d="M72 90h15v15H72z" class="H"/><path d="M90 90h15v15H90z" class="E"/><path d="M108 90h15v15h-15z" class="D"/><path d="M126 90h15v15h-15z" class="F"/><path d="M144 90h15v15h-15z" class="B"/><path d="M162 90h15v15h-15z" class="E"/><path d="M180 90h15v15h-15z" class="C"/><path d="M198 90h15v15h-15z" class="E"/><path d="M0 108h15v15H0z" class="H"/><path d="M18 108h15v15H18zm18 0h15v15H36z" class="F"/><path d="M54 108h15v15H54z" class="D"/><use href="#L" class="H"/><path d="M108 108h15v15h-15z" class="C"/><path d="M180 108h15v15h-15z" class="I"/><path d="M0 126h15v15H0z" class="J"/><use href="#M" class="E"/><path d="M36 126h15v15H36z" class="C"/><path d="M54 126h15v15H54z" class="D"/><path d="M72 126h15v15H72z" class="G"/><path d="M90 126h15v15H90z" class="I"/><path d="M0 144h15v15H0z" class="G"/><path d="M18 144h15v15H18z" class="J"/><path d="M36 144h15v15H36z" class="G"/><path d="M54 144h15v15H54z" class="F"/><path d="M72 144h15v15H72z" class="D"/><path d="M0 162h15v15H0z" class="J"/><path d="M18 162h15v15H18z" class="F"/><path d="M36 162h15v15H36zm18 0h15v15H54z" class="G"/><path d="M72 162h15v15H72z" class="I"/><use href="#O" class="J"/><path d="M18 180h15v15H18z" class="K"/><path d="M36 180h15v15H36z" class="H"/><path d="M54 180h15v15H54z" class="J"/><path d="M72 180h15v15H72z" class="B"/><path d="M0 198h15v15H0z" class="E"/><path d="M18 198h15v15H18zm18 0h15v15H36zm18 0h15v15H54z" class="J"/><path d="M72 198h15v15H72z" class="D"/><path d="M0 216h15v15H0z" class="J"/><path d="M18 216h15v15H18z" class="K"/><path d="M36 216h15v15H36z" class="H"/><path d="M54 216h15v15H54z"/><path d="M72 216h15v15H72z" class="F"/><path d="M18 234h15v15H18zm18 0h15v15H36zm18 0h15v15H54zm18 0h15v15H72z"/><path d="M90 234h15v15H90z" class="C"/><path d="M36 252h15v15H36z" class="K"/><use href="#P"/><path d="M90 252h15v15H90z" class="J"/><path d="M108 252h15v15h-15z" class="B"/><path d="M54 270h15v15H54zm18 0h15v15H72zm18 0h15v15H90z"/><path d="M108 270h15v15h-15z" class="J"/><path d="M126 270h15v15h-15z" class="B"/><path d="M72 288h15v15H72z" class="H"/><path d="M90 288h15v15H90zm18 0h15v15h-15z"/><path d="M126 288h15v15h-15z" class="G"/><path d="M108 306h15v15h-15z" class="K"/><path d="M126 306h15v15h-15z" class="H"/></g><circle cx="399.3" cy="169.4" r="24" fill="#fff" paint-order="stroke markers fill"/><circle cx="401.3" cy="169.6" r="12" paint-order="stroke markers fill"/><circle cx="448.9" cy="189.7" r="5" paint-order="stroke markers fill"/><circle cx="477.3" cy="186.9" r="5" paint-order="stroke markers fill"/><path fill="none" stroke-linejoin="bevel" stroke-width="3.1" d="M378.6 202.6c38 25.4 88.2 13.8 92.2 14.4" class="L S"/><path fill="#c09550" d="M244.2 121.5c8.1 24 208.2 30.4 226-.4-9.3-9-31.2-12.5-44.1-16.2.2-55.2-34.2-79.3-68.9-79.8-35-.5-66.4 26.8-69.2 79.4-18.5 4.1-26 6-43.8 17"/><g class="L M"><g class="S"><path fill="url(#D)" d="M244 121.7c8.1 24 208.2 30.4 226-.4-9.3-9-31.2-12.6-44.1-16.2.3-55.2-34.1-79.3-68.8-79.8-35.2-.5-66.5 26.8-69.3 79.4-18.5 4.1-26 6-43.7 17" class="Q"/><path fill="#795734" d="M287.7 105s62.7 23 138 0c.3-11.9-1.4-18-1.4-18s-74.5 21.6-134-1.7a112 112 0 0 0-2.6 19.7" class="R"/></g><ellipse cx="357.8" cy="28.8" fill="#a87947" rx="9.1" ry="5.5" class="Q"/></g><circle cx="82.3" cy="269.9" r="40.8" fill="none" stroke="#f9d456" class="M R"/><path d="M46.5 269.4l30.5-4.8 5.3-30.3 5 30.3 30 5.1-30.5 5.2-5.1 30.3-5.1-30.2s1.5-2.4 2.5-3.3c.2 1.3 6.9 4 6-3.6-4.2-2.9-7.1 0-6 3.6.6 1.9-2.5 3.3-2.5 3.3zm29-6.4l.4-4.1-12.2-6.6 7.4 10.9zm-.5 13.4l.4 4.2-12.3 6.6 7.5-11zm13.5.4l-.4 4.2 12.3 6.6-7.5-10.9zm.2-13.9l-.4-4.2 12.3-6.6-7.5 11z" fill="#f9d455"/><g class="M N"><g fill="none" stroke-dasharray="4 16" stroke-linecap="square" class="P"><path stroke-dashoffset="12.4" d="M89.7 227.6S122.2 69 295.7 56.2"/><path d="M486.5 132.5s61.3 59.6 67.4 98c-27.7 14.7-18.6-.4-42 9-3.8 25.6 8.3 18.7 12.6 34.2 22 11.2 53.1-48.4 50 23.7-26 19.7-32.7-2.9-58.1 13.3-4.7 15.7 24.5 38.1 24.5 38.1"/></g><g class="R"><ellipse cx="548.1" cy="229.3" rx="10.4" ry="10.3"/><ellipse cx="524.8" cy="272.6" rx="10.4" ry="10.3"/><ellipse cx="574.6" cy="294.9" rx="10.4" ry="10.3"/><ellipse cx="543.1" cy="350.8" rx="10.4" ry="10.3"/></g></g></svg>